<svg width="911" height="143" viewBox="0 0 911 143" fill="none" xmlns="http://www.w3.org/2000/svg">
<path d="M120.484 3.48218L77.3396 101.562H76.9492L33.6224 3.48218H0L62.1878 139.433H91.9183L154.295 3.48218H120.484Z" fill="black"/>
<path d="M215.961 0.565918C174.379 0.565918 144.453 30.0848 144.453 71.4552C144.453 112.819 174.379 142.344 215.961 142.344C257.544 142.344 287.476 112.819 287.476 71.4552C287.476 30.0848 257.55 0.565918 215.961 0.565918ZM215.961 116.319C191.086 116.319 174.184 98.255 174.184 71.4552C174.184 44.6491 191.092 26.5916 215.961 26.5916C240.836 26.5916 257.739 44.6554 257.739 71.4552C257.745 98.255 240.836 116.319 215.961 116.319Z" fill="black"/>
<path d="M380.878 3.48218L343.566 60.9716H343.175L305.863 3.48218H271.862L328.408 85.6315V139.433H358.138V85.6315L414.879 3.48218H380.878Z" fill="black"/>
<path d="M443.5 3.48218L382.288 139.433H414.349L423.291 118.455H491.499L500.442 139.433H532.698L471.291 3.48218H443.5ZM434.368 92.429L457.298 38.2439H457.688L480.617 92.429H434.368Z" fill="black"/>
<path d="M596.051 90.2931H628.892C628.118 106.412 614.704 116.319 593.916 116.319C569.822 116.319 553.303 98.255 553.303 71.4552C553.303 44.6491 569.822 26.5916 593.916 26.5916C611.599 26.5916 623.842 36.6935 628.508 53.0075L656.299 45.8197C649.882 18.6297 626.178 0.565918 593.922 0.565918C552.919 0.565918 523.579 30.0848 523.579 71.4552C523.579 112.819 552.925 142.344 593.922 142.344C633.565 142.344 657.854 120.397 657.854 83.8858V67.1816H596.057V90.2931H596.051Z" fill="black"/>
<path d="M671.49 139.433H774.095V113.407H701.221V82.7173H767.294V58.0574H701.221V29.5079H774.291V3.48218H671.49V139.433Z" fill="black"/>
<path d="M911 46.7912C911 20.3816 892.151 3.48218 862.414 3.48218H790.711V139.433H820.442V90.2953H844.536L876.023 139.433H909.835L876.609 89.1309V88.7407C898.172 84.0768 911 68.7384 911 46.7912ZM859.505 64.0745H820.448V29.5016H859.121C874.279 29.5016 881.275 34.9396 881.275 46.401C881.269 57.8623 873.107 64.0745 859.505 64.0745Z" fill="black"/>
</svg>
